<?xml version="1.0" standalone="no"?>
<!DOCTYPE svg PUBLIC "-//W3C//DTD SVG 20010904//EN"
 "http://www.w3.org/TR/2001/REC-SVG-20010904/DTD/svg10.dtd">
<svg version="1.0" xmlns="http://www.w3.org/2000/svg"
 width="765.000000pt" height="765.000000pt" viewBox="0 0 765.000000 765.000000"
 preserveAspectRatio="xMidYMid meet">
<metadata>
Created by potrace 1.11, written by Peter Selinger 2001-2013
</metadata>
<g transform="translate(0.000000,765.000000) scale(0.100000,-0.100000)"
fill="#000000" stroke="none">
<path d="M3429 5712 c-113 -67 -211 -157 -278 -255 -45 -66 -105 -199 -126
-277 -25 -98 -31 -268 -12 -365 9 -44 86 -318 171 -609 l155 -528 -81 -204
c-99 -254 -130 -294 -228 -294 -53 0 -92 21 -127 67 l-28 36 -5 721 c-5 706
-5 722 -26 766 -46 98 -144 160 -254 160 -108 -1 -196 -55 -244 -152 l-26 -52
0 -298 0 -298 33 0 c19 0 62 14 96 31 145 72 200 244 126 395 -14 29 -39 64
-56 78 -44 37 -36 71 23 110 36 23 86 15 119 -20 l24 -26 5 -716 5 -717 32
-67 c59 -124 161 -196 295 -206 78 -5 80 -8 52 -102 -20 -68 -109 -162 -172
-181 l-42 -12 0 -248 0 -247 52 -12 c122 -26 210 -115 227 -229 l6 -46 274 -3
273 -2 -7 37 c-4 21 -18 53 -31 71 -42 54 -75 65 -211 72 l-122 5 -77 85 c-42
47 -83 99 -90 117 -28 66 -13 132 39 181 l25 24 201 -120 c213 -127 253 -143
318 -121 87 28 133 90 133 178 0 63 -10 89 -60 152 -56 71 -115 198 -135 293
-24 106 -16 283 15 376 78 230 248 401 475 477 l80 27 435 6 435 5 54 30 c29
16 68 47 87 68 60 71 64 96 64 439 0 169 -3 308 -6 308 -12 0 -79 -43 -107
-69 -50 -45 -57 -70 -57 -201 l0 -120 -290 0 -290 0 0 33 c0 95 -55 219 -132
297 -68 69 -106 89 -328 171 -107 39 -209 80 -227 91 -36 21 -76 95 -71 131
l3 24 100 -38 c113 -43 173 -48 225 -20 31 16 80 72 80 91 0 3 -30 17 -67 30
-167 57 -203 88 -203 174 0 38 6 52 33 82 49 54 95 56 220 9 54 -20 101 -34
104 -31 11 11 5 104 -10 132 -31 60 -58 73 -432 204 -202 72 -373 130 -379
129 -6 0 -31 -12 -57 -27z"/>
<path d="M4798 5473 c-28 -33 -39 -63 -39 -111 -1 -64 8 -82 90 -191 39 -52
68 -97 66 -102 -3 -4 -100 -81 -215 -170 -116 -89 -210 -165 -210 -169 0 -4
22 -26 49 -48 65 -55 132 -158 166 -255 l28 -77 36 27 c204 155 371 291 394
321 32 43 57 119 57 177 0 87 -22 128 -207 375 -98 132 -183 239 -189 240 -6
0 -18 -8 -26 -17z"/>
<path d="M4407 3349 c-154 -16 -369 -85 -605 -194 -72 -34 -101 -52 -98 -62 3
-8 40 -69 82 -137 l76 -123 44 -2 c153 -5 263 -179 207 -326 l-19 -50 166
-270 167 -270 302 -3 c339 -3 319 -8 282 73 -37 81 -89 104 -241 105 l-105 0
-46 78 c-25 42 -87 145 -137 227 l-92 150 81 85 c211 223 325 433 303 559 -23
128 -147 181 -367 160z"/>
</g>
</svg>
